<svg width="23" height="1201" viewBox="0 0 23 1201" fill="none" xmlns="http://www.w3.org/2000/svg">
<g style="mix-blend-mode:overlay">
<path fill-rule="evenodd" clip-rule="evenodd" d="M12 0C11.4477 0 11 0.447715 11 1V44C11 44.5523 11.4477 45 12 45V45C12.5523 45 13 44.5523 13 44V1C13 0.447715 12.5523 0 12 0V0ZM12 94.5C11.4477 94.5 11 94.9477 11 95.5V545C11 545.552 11.4477 546 12 546V546C12.5523 546 13 545.552 13 545V95.5C13 94.9477 12.5523 94.5 12 94.5V94.5ZM12 626.5C11.4477 626.5 11 626.948 11 627.5V1074.5C11 1075.05 11.4477 1075.5 12 1075.5V1075.5C12.5523 1075.5 13 1075.05 13 1074.5V627.5C13 626.948 12.5523 626.5 12 626.5V626.5ZM12 1129C11.4477 1129 11 1129.45 11 1130V1200C11 1200.55 11.4477 1201 12 1201V1201C12.5523 1201 13 1200.55 13 1200V1130C13 1129.45 12.5523 1129 12 1129V1129ZM5.23626 67.9482C6.94952 67.1515 8.3904 69.4559 6.92397 70.6473V70.6473C6.31793 71.1398 5.44533 71.1241 4.85729 70.6104V70.6104C3.98363 69.8471 4.18431 68.4374 5.23626 67.9482V67.9482ZM9.79844 70.2563C8.3616 71.4278 8.33552 73.6142 9.74402 74.8196V74.8196V74.8196C10.4698 75.4026 11.5435 75.2083 12.019 74.408L16.605 66.6891V66.6891C17.0312 65.9246 16.0891 65.1334 15.4098 65.6853L14.0002 66.8306L9.79844 70.2563ZM6.41992 74.8329C6.41992 74.4734 6.84144 74.2794 7.11455 74.5131V74.5131C7.27759 74.6526 7.30957 74.8925 7.18878 75.0699V75.0699C6.95556 75.4123 6.41992 75.2473 6.41992 74.8329V74.8329ZM1.28588 69.4513L4.88203 72.5932C4.90694 72.615 4.91992 72.6471 4.91992 72.6802V72.6802V78.3081C4.91992 79.1448 6.00153 79.4781 6.47248 78.7866L7.92365 76.6556C8.24977 76.1768 8.91486 76.0775 9.36655 76.4404V76.4404L10.8504 77.7103L10.8529 77.7125L10.9493 77.7957C11.3517 78.1432 11.973 78.0339 12.2316 77.5701L17.5082 68.1056L22.0278 60.4986V60.4986C22.4002 59.8718 21.7245 58.8769 21.0086 59.0148C20.9406 59.0279 20.8717 59.05 20.8029 59.082L1.48409 68.0657C0.935435 68.3209 0.830641 69.0536 1.28588 69.4513ZM6.5 576.75C3.87665 576.75 1.75 578.877 1.75 581.5V587C1.75 589.623 3.87665 591.75 6.5 591.75V591.75C6.69664 591.75 6.83211 591.947 6.76152 592.131L5.47294 595.481C5.01331 596.676 6.43412 597.707 7.42786 596.9L10.8685 594.104C12.743 592.581 15.0847 591.75 17.5 591.75V591.75C20.1234 591.75 22.25 589.623 22.25 587V581.5C22.25 578.877 20.1234 576.75 17.5 576.75H6.5ZM3.25 581.5C3.25 579.705 4.70507 578.25 6.5 578.25H17.5C19.2949 578.25 20.75 579.705 20.75 581.5V587C20.75 588.795 19.2949 590.25 17.5 590.25H13.6775C13.3904 590.25 13.1121 590.349 12.8893 590.53L9.86702 592.985C9.14095 593.575 8.10283 592.822 8.43867 591.949V591.949C8.75357 591.13 8.14921 590.25 7.27199 590.25H6.5C4.70507 590.25 3.25 588.795 3.25 587V581.5ZM7.5 585.607C7.08579 585.607 6.75 585.943 6.75 586.357C6.75 586.772 7.08579 587.107 7.5 587.107H16.5C16.9142 587.107 17.25 586.772 17.25 586.357C17.25 585.943 16.9142 585.607 16.5 585.607H7.5ZM6.75 583C6.75 582.586 7.08579 582.25 7.5 582.25H12C12.4142 582.25 12.75 582.586 12.75 583C12.75 583.414 12.4142 583.75 12 583.75H7.5C7.08579 583.75 6.75 583.414 6.75 583ZM17.25 1094.6C17.25 1095.51 16.5096 1096.25 15.5962 1096.25V1096.25C13.7862 1096.25 13.2913 1093.76 14.9638 1093.07L16.9044 1092.27C17.069 1092.2 17.25 1092.32 17.25 1092.5V1094.6ZM18.75 1092.5V1092.5C18.75 1094.72 20.7647 1096.63 21.5256 1098.72C21.6708 1099.12 21.75 1099.55 21.75 1100V1108C21.75 1110.07 20.0711 1111.75 18 1111.75H4C1.92893 1111.75 0.25 1110.07 0.25 1108V1100C0.25 1098.25 1.44531 1096.78 3.06292 1096.37C3.27691 1096.31 3.47401 1096.2 3.67821 1096.11V1096.11L16.3309 1090.88C17.4831 1090.4 18.75 1091.25 18.75 1092.5ZM4.00321 1097.75H17.9H18C19.2426 1097.75 20.25 1098.76 20.25 1100V1101.04C20.25 1101.16 20.1244 1101.25 20 1101.25V1101.25H2V1101.25C1.87559 1101.25 1.75 1101.16 1.75 1101.04V1100C1.75 1098.76 2.75736 1097.75 4 1097.75H4.00321ZM2 1102.75C1.87559 1102.75 1.75 1102.84 1.75 1102.96V1108C1.75 1109.24 2.75736 1110.25 4 1110.25H18C19.2426 1110.25 20.25 1109.24 20.25 1108V1102.96C20.25 1102.84 20.1244 1102.75 20 1102.75V1102.75H2V1102.75ZM3.25 1107C3.25 1106.59 3.58579 1106.25 4 1106.25H10C10.4142 1106.25 10.75 1106.59 10.75 1107C10.75 1107.41 10.4142 1107.75 10 1107.75H4C3.58579 1107.75 3.25 1107.41 3.25 1107Z" fill="#D9D9D9"/>
</g>
</svg>
