<svg width="1720" height="20" viewBox="0 0 1720 20" fill="none" xmlns="http://www.w3.org/2000/svg">
<path d="M0 10H810M1720 10H910" stroke="#FBFBFB" stroke-opacity="0.4" stroke-width="2"/>
<g opacity="0.85">
<path fill-rule="evenodd" clip-rule="evenodd" d="M866.634 3.84038L854.347 13.8787V17.0626L855.595 15.22C855.87 14.8134 856.432 14.7291 856.813 15.0372L858.983 16.7896L866.634 3.84038ZM868.496 0.401434C869.223 -0.192492 870.224 0.676902 869.746 1.48663L859.878 18.1881C859.617 18.6289 859.029 18.7359 858.632 18.4148L856.428 16.6344L854.399 19.6298C853.934 20.3158 852.867 19.9852 852.867 19.1551V13.5718C852.867 13.3178 852.981 13.0774 853.177 12.9173L868.496 0.401434Z" fill="#ECEEF3" fill-opacity="0.3"/>
<path fill-rule="evenodd" clip-rule="evenodd" d="M865.005 3.50716L851 10.0791L853.905 12.6398L865.005 3.50716ZM855.04 13.6286L859.32 17.3251L866.631 4.09203L855.04 13.6286ZM869.429 1.43123C869.428 1.43153 869.427 1.43183 869.427 1.43214L869.429 1.43123ZM868.803 0.0827174C869.54 -0.262952 870.285 0.541818 869.891 1.2564L860.232 18.7395C859.973 19.2076 859.352 19.3179 858.949 18.9673L858.853 18.8832L858.85 18.881L853.4 14.1743L849.286 10.5467C848.831 10.1453 848.935 9.40592 849.484 9.14845L868.803 0.0827174Z" fill="#ECEEF3" fill-opacity="0.3"/>
</g>
</svg>
